<?xml version="1.0" encoding="UTF-8"?>
<!DOCTYPE svg PUBLIC "-//W3C//DTD SVG 1.1//EN" "http://www.w3.org/Graphics/SVG/1.1/DTD/svg11.dtd">
<!-- Creator: CorelDRAW X8 -->
<svg xmlns="http://www.w3.org/2000/svg" xml:space="preserve" width="832px" height="357px" version="1.1" shape-rendering="geometricPrecision" text-rendering="geometricPrecision" image-rendering="optimizeQuality" fill-rule="evenodd" clip-rule="evenodd"
viewBox="0 0 832 357"
 xmlns:xlink="http://www.w3.org/1999/xlink">
 <g id="PowerClip_x0020_Contents">
  <metadata id="CorelCorpID_0Corel-Layer"/>
  <path fill="#373435" d="M645 7c95,0 172,76 172,171 0,95 -77,172 -172,172 -15,0 -30,-2 -44,-5 7,1 15,1 22,1 13,0 26,-1 37,-3 12,-2 23,-6 32,-10 10,-4 19,-9 28,-16 8,-6 15,-14 22,-22l3 -5c-11,-11 -22,-23 -32,-35 -1,-1 -2,-2 -3,-3 -2,-1 -3,-2 -4,-2 -3,-1 -6,-2 -8,-2 -2,0 -3,0 -5,1l0 0c-1,0 -3,1 -4,1 -2,1 -3,2 -4,2 -1,1 -2,2 -3,3l-1 0c-1,2 -3,3 -5,5 -2,1 -4,2 -6,3 -2,1 -4,3 -6,3 -2,1 -4,2 -6,3l0 0c-2,0 -4,1 -6,2 -2,0 -5,0 -7,1 -3,0 -6,0 -8,0 -3,1 -6,1 -9,1 -10,0 -20,-2 -29,-6 -4,-2 -8,-5 -12,-8 -4,-2 -8,-6 -11,-10 -3,-3 -6,-8 -9,-12 -3,-5 -5,-10 -7,-16 -2,-6 -4,-12 -5,-18l0 -1c-1,-6 -1,-13 -1,-21 0,-7 0,-14 1,-20 1,-6 3,-12 5,-18 2,-6 4,-11 7,-16 3,-4 6,-9 9,-12 4,-4 8,-8 12,-11 4,-3 8,-5 13,-7 5,-2 10,-4 16,-5 5,-1 11,-2 17,-2 3,0 7,1 10,1 3,0 6,1 8,1 3,1 5,1 7,2 3,0 5,1 6,2 2,0 4,1 6,2 1,1 3,2 4,2 4,3 6,4 8,5l0 1c2,1 3,1 4,2 1,1 3,1 4,2 2,1 3,2 5,2 2,0 4,1 5,1 3,0 5,-1 8,-1 2,-1 4,-2 6,-3 1,-1 2,-2 3,-3 2,-2 3,-3 4,-4 8,-12 18,-25 27,-37l-4 -5c-3,-3 -6,-6 -10,-9l0 0c-3,-3 -7,-6 -11,-9 -4,-2 -8,-5 -12,-7 -5,-2 -9,-4 -14,-6 -4,-2 -9,-4 -14,-5 -5,-2 -10,-3 -16,-4 -5,-1 -10,-2 -16,-3 -6,0 -12,0 -18,0 -12,0 -24,1 -35,3 -11,2 -22,5 -33,9 -8,3 -16,7 -24,11 29,-21 65,-33 103,-33zm82 236c0,-1 0,-1 0,-2 0,0 1,0 1,-1 0,0 1,0 1,0 1,-1 1,-1 2,-1 0,0 0,0 1,1 0,0 1,0 1,0 0,1 1,1 1,1 0,1 0,1 0,2 0,0 0,1 0,1 0,1 -1,1 -1,1 0,1 -1,1 -1,1 -1,0 -1,0 -1,0 -1,0 -1,0 -2,0 0,0 -1,0 -1,-1 0,0 -1,0 -1,-1 0,0 0,-1 0,-1zm11 3l0 -21 4 0c0,0 0,0 1,0 0,0 0,1 0,1l1 1c0,0 0,-1 1,-1 0,0 0,-1 1,-1 0,0 1,0 1,0 1,0 1,0 2,0 1,0 2,0 3,0 1,1 2,2 2,3 0,-1 1,-1 1,-2 1,0 1,0 2,-1 1,0 1,0 2,0 1,0 1,0 2,0 1,0 2,0 3,0 1,0 2,1 2,2 1,0 2,1 2,2 0,1 0,2 0,4l0 13 -6 0 0 -13c0,-3 -1,-4 -3,-4 -1,0 -1,1 -2,1 0,1 -1,1 -1,3l0 13 -6 0 0 -13c0,-2 0,-3 -1,-3 0,0 -1,-1 -2,-1 0,0 -1,0 -1,1 -1,0 -1,0 -2,1l0 15 -6 0zm44 -21c1,0 3,0 4,0 1,1 2,1 3,2 1,1 1,2 2,3 0,1 0,3 0,4 0,1 0,1 0,1 0,1 0,1 0,1 0,0 0,0 0,0 -1,0 -1,1 -1,1l-12 0c0,1 1,3 1,3 1,1 2,2 4,2 0,0 1,-1 2,-1 0,0 1,0 1,0 0,-1 1,-1 1,-1 1,0 1,0 1,0 1,0 1,0 1,0l2 3c0,0 -1,1 -2,2 -1,0 -1,0 -2,1 -1,0 -2,0 -3,0 0,0 -1,0 -2,0 -1,0 -3,0 -4,0 -1,-1 -2,-2 -3,-3 -1,-1 -2,-2 -3,-3 0,-2 -1,-3 -1,-5 0,-1 1,-3 1,-4 1,-1 1,-2 2,-3 1,-1 2,-2 4,-3 1,0 2,0 4,0zm0 4c-1,0 -2,0 -3,1 -1,1 -1,2 -1,3l8 0c0,-1 0,-1 0,-2 -1,0 -1,-1 -1,-1 0,0 -1,-1 -1,-1 -1,0 -1,0 -2,0zm-125 -14l-15 0c-2,0 -3,0 -4,-1 -1,-1 -2,-2 -2,-3l-5 -14 -32 0 -5 14c0,1 -1,2 -2,3 -1,1 -3,1 -4,1l-15 0 32 -83 20 0 32 83zm-54 -32l23 0 -7 -22c-1,-1 -2,-3 -2,-5 -1,-2 -2,-4 -2,-6 -1,2 -1,4 -2,6 -1,2 -1,4 -2,5l-8 22zm80 2l0 30 -19 0 0 -83 27 0c6,0 11,1 15,2 4,1 8,3 10,5 3,2 5,5 6,8 1,3 2,6 2,10 0,2 0,5 -1,7 -1,3 -2,5 -3,7 -2,2 -3,4 -5,6 -3,1 -5,2 -8,3 2,1 3,2 4,3 1,1 2,2 3,3l18 29 -18 0c-3,0 -5,-1 -7,-3l-14 -25c0,-1 -1,-1 -2,-2 -1,0 -2,0 -3,0l-5 0zm0 -14l8 0c2,0 5,0 6,-1 2,-1 4,-1 5,-3 1,-1 2,-2 2,-4 1,-1 1,-3 1,-5 0,-3 -1,-6 -3,-8 -3,-2 -6,-3 -11,-3l-8 0 0 24zm103 -22c-1,1 -1,2 -2,2 -1,1 -1,1 -2,1 -1,0 -2,0 -3,-1 -1,-1 -2,-1 -4,-2 -1,-1 -2,-1 -4,-2 -2,0 -3,-1 -6,-1 -3,0 -6,1 -8,3 -1,1 -2,3 -2,6 0,2 0,3 1,4 1,1 3,2 4,3 2,1 4,2 6,2 3,1 5,2 7,2 3,1 5,2 7,3 2,1 4,3 6,5 2,1 3,3 4,6 1,2 2,5 2,9 0,4 -1,7 -2,10 -2,4 -3,7 -6,9 -3,3 -6,5 -9,6 -4,2 -8,2 -13,2 -3,0 -5,0 -8,-1 -3,0 -5,-1 -8,-2 -2,-1 -5,-2 -7,-3 -2,-1 -4,-3 -6,-5l6 -9c1,0 1,-1 2,-1 1,-1 2,-1 2,-1 2,0 3,0 4,1 1,1 2,2 4,2 1,1 3,2 5,3 2,1 4,1 7,1 3,0 6,-1 8,-2 2,-2 3,-4 3,-8 0,-2 -1,-3 -2,-4 -1,-2 -2,-3 -4,-3 -2,-1 -4,-2 -6,-3 -2,0 -5,-1 -7,-2 -2,0 -4,-1 -7,-2 -2,-1 -4,-3 -6,-5 -1,-1 -3,-4 -4,-6 -1,-3 -1,-6 -1,-10 0,-3 0,-6 2,-9 1,-3 3,-6 5,-8 3,-2 5,-4 9,-6 4,-1 8,-2 12,-2 3,0 5,0 8,1 2,0 4,1 7,2 2,0 4,1 6,2 1,2 3,3 5,4l-5 9zm-86 114c-1,0 -1,0 -2,0 -1,0 -1,0 -2,0 0,0 -1,0 -1,1 -1,0 -1,0 -2,1 -1,0 -1,1 -2,1 -2,2 -5,4 -7,5l0 0c-2,2 -4,4 -7,5 -2,1 -4,3 -7,4 -2,1 -4,2 -7,3 -3,1 -5,1 -8,2l0 0c-3,0 -6,1 -8,1 -3,1 -6,1 -9,1 -4,0 -7,0 -10,0 -12,0 -24,-2 -35,-7 -5,-2 -10,-5 -15,-9 -5,-3 -9,-7 -13,-12 -4,-4 -8,-10 -11,-15 -3,-6 -6,-12 -8,-18 -2,-7 -4,-14 -5,-21 -1,-8 -2,-15 -2,-24 0,-7 1,-15 2,-22 1,-8 3,-14 5,-21 2,-6 5,-12 8,-18 4,-6 7,-11 11,-15 5,-5 9,-9 14,-13 5,-3 11,-6 17,-9 5,-2 11,-4 18,-5 6,-2 13,-2 20,-2 4,0 8,0 11,0 3,1 7,1 10,2 3,0 6,1 8,2 3,0 5,1 8,2 2,1 4,2 6,3 2,1 4,2 6,3l8 5c1,1 2,2 3,2 2,1 3,2 4,2 0,0 1,1 1,1 1,0 2,0 2,0 2,0 3,0 4,0 0,-1 1,-1 1,-1 1,-1 1,-1 2,-2 1,-1 1,-1 2,-2l20 -27c-1,-1 -3,-3 -4,-4 -3,-3 -7,-5 -10,-7 -4,-3 -7,-5 -11,-7 -4,-2 -8,-4 -12,-6l0 0c-4,-1 -9,-3 -13,-4 -5,-2 -9,-3 -14,-4 -5,-1 -11,-1 -16,-2 -5,0 -10,-1 -16,-1 -11,0 -22,1 -33,3 -10,2 -20,5 -29,8 -10,4 -18,9 -26,14 -9,5 -16,11 -23,17 -6,7 -12,14 -17,22 -6,8 -10,17 -14,26 -4,9 -7,18 -8,29 -2,10 -3,20 -3,31 0,11 1,22 2,32 2,10 4,19 8,28l0 0c3,10 7,18 12,26 4,8 10,15 16,22 6,6 13,12 20,18 7,5 16,9 24,13 9,4 19,7 28,8 10,2 21,3 32,3 13,0 24,-1 35,-3 10,-2 20,-4 29,-8 8,-4 16,-9 24,-14 5,-5 11,-10 15,-15l-23 -26c-1,0 -1,-1 -2,-1 0,0 0,0 -1,0l0 -1z"/>
  <path fill="#373435" fill-rule="nonzero" d="M178 88c0,3 -1,5 -2,7 -1,2 -2,4 -4,5 -2,2 -4,3 -7,4 -3,0 -6,1 -10,1l-43 0 -9 31c3,-1 7,-1 10,-1 3,-1 6,-1 8,-1 9,0 17,1 23,4 6,2 12,5 16,10 4,4 8,9 10,15 2,5 3,11 3,18 0,10 -2,19 -6,28 -4,9 -9,16 -16,22 -6,6 -14,11 -23,14 -9,4 -19,6 -30,6 -5,0 -11,-1 -16,-2 -5,-1 -9,-3 -14,-5 -4,-2 -8,-4 -11,-7 -4,-2 -7,-5 -10,-8l13 -15c2,-2 3,-3 5,-4 2,-1 3,-1 5,-1 2,0 5,1 7,2 2,1 4,3 6,4 2,2 5,3 9,5 3,1 7,1 12,1 6,0 11,-1 15,-3 4,-2 7,-4 10,-7 3,-4 5,-8 6,-12 1,-4 2,-9 2,-13 0,-8 -2,-13 -7,-17 -4,-4 -11,-6 -19,-6 -4,0 -7,0 -11,1 -4,0 -9,2 -13,3l-21 -6 25 -88 89 0 -2 15z"/>
  <path id="1" fill="#373435" fill-rule="nonzero" d="M249 180c-5,0 -11,-1 -16,-3 -5,-1 -9,-4 -13,-8 -4,-3 -8,-8 -10,-13 -3,-6 -4,-12 -4,-20 0,-8 2,-17 5,-25 4,-7 9,-14 15,-20 6,-6 13,-11 22,-14 8,-4 17,-5 27,-5 9,0 16,1 23,3 6,3 12,6 17,11 4,4 8,10 10,16 2,6 3,13 3,21 0,6 0,12 -1,18 -2,5 -3,11 -6,16 -2,5 -5,10 -8,15 -3,5 -7,10 -11,15l-45 54c-2,2 -5,4 -8,6 -3,1 -7,2 -11,2l-34 0 64 -67c1,-1 2,-3 4,-4 1,-1 2,-3 3,-4 -4,2 -8,4 -12,5 -5,1 -9,1 -14,1zm45 -57c0,-4 0,-7 -1,-10 -2,-3 -3,-5 -5,-7 -2,-2 -5,-3 -8,-4 -2,-1 -6,-2 -9,-2 -4,0 -8,1 -12,2 -3,2 -6,4 -8,7 -3,3 -5,6 -6,10 -2,4 -2,8 -2,13 0,7 2,12 5,16 4,4 10,6 17,6 5,0 9,-1 12,-3 4,-1 7,-3 9,-6 3,-2 5,-6 6,-9 2,-4 2,-8 2,-13z"/>
  <path id="2" fill="#373435" fill-rule="nonzero" d="M411 72c8,0 15,1 21,3 6,2 11,5 16,9 4,4 7,9 10,14 2,6 3,12 3,18 0,8 -1,14 -3,20 -2,6 -5,12 -9,17 -4,6 -8,11 -13,16 -5,5 -10,10 -16,15l-40 37c5,-2 9,-3 13,-4 5,0 9,-1 12,-1l35 0c4,0 7,1 9,3 2,2 2,4 2,7 0,0 0,1 0,1 0,0 0,1 0,3 0,1 0,3 -1,6 0,3 -1,7 -1,13l-123 0 2 -12c0,-2 1,-4 2,-7 1,-3 3,-5 6,-7l57 -51c6,-5 10,-10 14,-14 4,-5 7,-9 10,-13 2,-4 4,-8 5,-12 1,-4 2,-9 2,-13 0,-6 -2,-11 -5,-14 -3,-3 -8,-5 -14,-5 -3,0 -6,0 -8,1 -3,1 -5,2 -7,4 -2,1 -4,3 -6,5 -1,2 -3,4 -4,6 -1,4 -3,6 -5,8 -3,1 -5,2 -9,2 -1,0 -3,0 -5,0l-18 -3c2,-9 6,-17 10,-23 5,-7 10,-12 16,-16 6,-5 12,-8 19,-10 7,-2 15,-3 23,-3z"/>
  <g id="_2014983309824">
   <path fill="#373435" d="M620 331c-93,-2 -153,-6 -243,-26 -112,-26 -236,-33 -351,-30 115,-11 241,-13 355,4 89,14 148,13 238,9 12,0 21,9 21,21 0,12 -9,22 -20,22z"/>
  </g>
  <path fill="none" d="M620 310c0,0 -157,2 -215,-12 -58,-14 -209,-35 -379,-23"/>
 </g>
</svg>
