<svg id="Layer_1" data-name="Layer 1" xmlns="http://www.w3.org/2000/svg" viewBox="0 0 750.55 572.5"><title>carvidor</title><path d="M968.63,592.57s11.92-85.52,32.85-83c68.37,8.22,121.54,56.59,121.54,56.59Z" transform="translate(-540.55 -190.5)" style="fill:#fff;isolation:isolate"/><path d="M890.35,647.59A7.82,7.82,0,0,0,887,647h-8.69l-2.5,15.9h8.1a9.91,9.91,0,0,0,4.84-.95,5.75,5.75,0,0,0,2.45-2.8,18.19,18.19,0,0,0,1.2-4.65,5.66,5.66,0,0,0,.2-1.45v-1.25a5.8,5.8,0,0,0-.5-2.55A3.49,3.49,0,0,0,890.35,647.59Z" transform="translate(-540.55 -190.5)" style="fill:#fff;isolation:isolate"/><path d="M1129.82,647.09a19.89,19.89,0,0,0-5.8-.7,17,17,0,0,0-6,1,9.4,9.4,0,0,0-4.19,3.2,19.82,19.82,0,0,0-2.9,6.15,69.64,69.64,0,0,0-2.1,9.9c-.4,2.4-.74,4.73-1,7a48.09,48.09,0,0,0-.4,5.4,9.53,9.53,0,0,0,1,4.75,5.55,5.55,0,0,0,3.3,2.5,19.75,19.75,0,0,0,6,.75,14.61,14.61,0,0,0,6.25-1.2,10.41,10.41,0,0,0,4.2-3.6,20.87,20.87,0,0,0,2.7-6,62.5,62.5,0,0,0,1.75-8.39q.6-3.81,1-7.3a53.58,53.58,0,0,0,.4-5.6,11.25,11.25,0,0,0-1-5.3A5.34,5.34,0,0,0,1129.82,647.09Z" transform="translate(-540.55 -190.5)" style="fill:#fff;isolation:isolate"/><path d="M1058.4,647.84a21.72,21.72,0,0,0-6.65-.85h-7.7l-6.2,39.49h8.4a15,15,0,0,0,6-1.15,11.7,11.7,0,0,0,4.55-3.55,20.67,20.67,0,0,0,3.19-6.2,57.92,57.92,0,0,0,2.2-9.19c.34-2.33.6-4.35.8-6a35.88,35.88,0,0,0,.3-3.85,11.48,11.48,0,0,0-1.2-5.75A6.59,6.59,0,0,0,1058.4,647.84Z" transform="translate(-540.55 -190.5)" style="fill:#fff;isolation:isolate"/><polygon points="266.38 484.19 279.67 484.19 277.57 455.6 266.38 484.19" style="fill:#fff;isolation:isolate"/><path d="M1285.35,685.55a31.57,31.57,0,0,0-9.24-8.52c10.07-26.31,18.45-56.65,7.57-84.06-11.32-26.11-41.87-37.72-68.74-36.82-31.43-1.51-62.48,3.76-93.46,8.18-50.53,9.34-103.13,16.33-159.92,26.61h0c-27.42,4.82-55,9.59-82.36,14.23-7.52-8.95-15.61-18.67-26.35-23.66-9.12-2-23.42,5.63-18.38,16.43,2.21,4.54,5.61,9.4,7.07,13.73-16,2.64-30.42-6.22-45.65-10-10.3-3.27-20-7.63-30.31-10.3-5.88-2.42-15.74-5.35-19.82,1.7-3.58,10.87-7.5,21.66-11.34,32.38-.62,4.8-8.07,2.61-11.69,4.16-22.44,3-48.49,8.22-61.15,29.25-4.65,6.11-6.84,13.86-9.71,20.6-10,6-14,23.41-3.16,30.66,12.06,9.67,29.15,5.81,42.27.71,4.8-.71,9.69-.43,14.53-.49,1.22,24.9,21.27,49.43,46.75,51.58,12.69.86,26.12.29,36.78-7.53,13.51-8.24,22.78-22.68,25.34-38.23,6.07,6.28,16.27,2.18,24.11,3.84q125.78,3.84,251.59,7.34c4.14,1.09,7.06-6.84,9.55-2,7.23,19.77,25.57,35.44,46.75,37.47,21.83,2,43.84-9.64,53.9-29.17,1.17-6.35,6.18-7.12,11.91-6.08,21.55-.29,44.57,6.65,64.9-3.47C1292.11,718.05,1295.37,697.37,1285.35,685.55ZM770.44,701.28a41.28,41.28,0,0,1-10.69,2.6,102.45,102.45,0,0,1-10.6.59q-13.29,0-19.74-7.09T723,678.08q0-3.2.3-6.74t.9-7.35a67.71,67.71,0,0,1,5.6-19.45,27,27,0,0,1,10.29-11.64q6.51-3.9,16.3-3.9a60.73,60.73,0,0,1,15.44,1.65,51.87,51.87,0,0,1,9.35,3.25l-2.5,15.39a75.23,75.23,0,0,0-9.1-2,59.06,59.06,0,0,0-9.59-.85,28.5,28.5,0,0,0-5.8.55,9.11,9.11,0,0,0-4.6,2.55,16.78,16.78,0,0,0-3.5,6.2,68.77,68.77,0,0,0-2.7,11.6q-.5,3.39-.85,6.15a39.42,39.42,0,0,0-.35,4.84c0,3.07.89,5.3,2.65,6.7s5,2.1,9.55,2.1q6.3,0,10.3-.35t8.19-.75Zm52.69,2.6-1.1-11.8h-22.3l-4.79,11.8H775l33.79-74.28H833l10.2,74.28Zm89.22-51.74q-.15,1.65-.45,3.45a28.44,28.44,0,0,1-2.35,8.4,22.91,22.91,0,0,1-3.65,5.55,22.29,22.29,0,0,1-4,3.45c-1.34.86-2.47,1.56-3.4,2.09l8.3,28.8H887.1l-6.29-25.6h-7.4l-4.1,25.6H849.92l11.79-74.28H890.9a34.17,34.17,0,0,1,9.35,1.15,17.32,17.32,0,0,1,6.75,3.5,14.81,14.81,0,0,1,4.1,6,24.46,24.46,0,0,1,1.4,8.74Q912.5,650.49,912.35,652.14Zm19.84,51.74L922,629.6h20.1l5.59,53.18,22.6-53.18h19.89l-33.79,74.28Zm53.08,0,11.8-74.28h19.39l-11.8,74.28Zm97.22-41.59q-.26,3.5-.85,7.2a61.61,61.61,0,0,1-4.55,16.29,30.82,30.82,0,0,1-7.7,10.6,28.22,28.22,0,0,1-10.94,5.75,53.79,53.79,0,0,1-14.3,1.75h-28.49l11.8-74.28h29.09q10.4,0,16.09,3.3a17.48,17.48,0,0,1,7.9,9.15,38.44,38.44,0,0,1,2.2,13.54C1082.74,657.72,1082.65,660,1082.49,662.29ZM1153,662c-.26,2.8-.63,5.56-1.1,8.3a72.25,72.25,0,0,1-4.45,17.19,27.09,27.09,0,0,1-7.24,10.4,25.21,25.21,0,0,1-10.7,5.15,67,67,0,0,1-14.79,1.44,54,54,0,0,1-10.7-1,21.44,21.44,0,0,1-8.5-3.65,16.87,16.87,0,0,1-5.55-7.45,33.33,33.33,0,0,1-2-12.4c0-2.26.14-4.81.4-7.64s.64-5.59,1.1-8.25a73.54,73.54,0,0,1,4.45-16.85,29.65,29.65,0,0,1,7.3-10.74,26.38,26.38,0,0,1,10.7-5.75,54.86,54.86,0,0,1,14.74-1.75,52,52,0,0,1,10.55,1,20.64,20.64,0,0,1,8.45,3.75,18.06,18.06,0,0,1,5.64,7.8q2.06,5,2.05,13.14Q1153.41,657.8,1153,662Zm65-9.85q-.15,1.65-.45,3.45a28.44,28.44,0,0,1-2.35,8.4,22.91,22.91,0,0,1-3.65,5.55,21.63,21.63,0,0,1-4,3.45c-1.33.86-2.46,1.56-3.39,2.09l8.29,28.8H1192.8l-6.3-25.6h-7.4l-4.1,25.6h-19.39l11.8-74.28h29.19a34.1,34.1,0,0,1,9.34,1.15,17.32,17.32,0,0,1,6.75,3.5,14.71,14.71,0,0,1,4.1,6,24.46,24.46,0,0,1,1.4,8.74Q1218.19,650.49,1218,652.14Z" transform="translate(-540.55 -190.5)" style="fill:#fff;isolation:isolate"/><path d="M1196.05,647.59a7.85,7.85,0,0,0-3.35-.6H1184l-2.5,15.9h8.1a10,10,0,0,0,4.85-.95,5.8,5.8,0,0,0,2.45-2.8,18.61,18.61,0,0,0,1.2-4.65,6.13,6.13,0,0,0,.2-1.45v-1.25a6,6,0,0,0-.5-2.55A3.57,3.57,0,0,0,1196.05,647.59Z" transform="translate(-540.55 -190.5)" style="fill:#fff;isolation:isolate"/><path d="M1035.94,609.92a10.5,10.5,0,0,0,1.56-14.77,12.74,12.74,0,0,0-9.17-4.64c-3.79-.25-8.67.38-20.74,8.06,3.24-3.36,6.4-6.65,9.44-9.84,7.48-7.41,14.32-14.25,20.22-20.26,7.7-7.85,13.25-13.74,17-18a71.23,71.23,0,0,0,5-6.2c5.06-7.35,2.49-12.55.51-15a10.5,10.5,0,0,0-16-.35c-.27.29-17.35,19.56-41.55,45-11,10.88-23,22.67-34.51,34-8.19,8-16.71,16.39-25.25,24.79l4.37,41.49c2.5-2.18,4.93-4.3,7.28-6.33l16.23-38.19h19.89l-5.71,12.55c4.49-3.66,8.52-6.88,12.16-9.72l.45-2.83h3.19c16.41-12.61,23.51-16.5,26.37-17.7A10.5,10.5,0,0,0,1035.94,609.92Z" transform="translate(-540.55 -190.5)" style="fill:#fff"/><path d="M888.75,661.94a5.75,5.75,0,0,0,2.45-2.8,18.19,18.19,0,0,0,1.2-4.65,5.66,5.66,0,0,0,.2-1.45v-1.25a5.8,5.8,0,0,0-.5-2.55,3.49,3.49,0,0,0-1.75-1.65A7.82,7.82,0,0,0,887,647h-2.1L877,655l-1.23,7.86h8.1A9.91,9.91,0,0,0,888.75,661.94Z" transform="translate(-540.55 -190.5)" style="fill:#fff"/><path d="M924.75,649.72Q917,656.6,910.3,662.23c-.24.62-.48,1.2-.75,1.76a22.91,22.91,0,0,1-3.65,5.55,22.29,22.29,0,0,1-4,3.45c-1.34.86-2.47,1.56-3.4,2.09l8.3,28.8H887.1l-4.92-20c-3.94,2.69-7.41,4.88-10.46,6.65l9.66-9.88-.57-2.35h-7.4l-4.1,25.6H849.92l4-25.2-12.42,12.7,1.72,12.5H833a10.45,10.45,0,0,0,2.33,7.14c2.82,3.49,8.05,7.7,16.86,7.89a33.44,33.44,0,0,0,7.28-.66l-.9,1.08c-6.91,8.38-15.5,18.81-8.42,27.56a10.52,10.52,0,0,0,7.46,3.87l.7,0a10.5,10.5,0,0,0,7.2-2.86c.33-.3,30.25-28.49,64.65-59.11Z" transform="translate(-540.55 -190.5)" style="fill:#fff"/><path d="M803.42,692.08a10.5,10.5,0,0,0,13.51.25l.31-.25Z" transform="translate(-540.55 -190.5)" style="fill:#fff"/><path d="M818.32,648.74c-.64.59-1.28,1.18-1.91,1.74l-9.48,24.2h13.3Z" transform="translate(-540.55 -190.5)" style="fill:#fff"/><path d="M723,678.08q0-3.2.3-6.74c.16-1.88.4-3.82.68-5.8a12.94,12.94,0,0,1-1.85-1.34,33.86,33.86,0,0,1,2.86-4.66,62,62,0,0,1,4.81-15,27,27,0,0,1,10.29-11.64,29,29,0,0,1,12.83-3.75c6.71-6.49,14.82-14.06,24.67-22.9,33.54-30.14,77.4-66.48,119.81-101.62,24.23-20.08,47.68-39.51,68.74-57.37Q959,455,951.56,463.41c-36.15,29.28-77.77,63.57-113.49,95.78-35.48,32-56.85,54.45-69.7,70.71q1.82.32,3.42.75a51.87,51.87,0,0,1,9.35,3.25l-2.5,15.39a75.23,75.23,0,0,0-9.1-2,59.06,59.06,0,0,0-9.59-.85c-1.13,0-2.19.06-3.21.16a56.1,56.1,0,0,0-6.66,15.6c-2.27,1.09-4.36,2-6.3,2.69-.15.79-.29,1.6-.43,2.45q-.5,3.39-.85,6.15a39.42,39.42,0,0,0-.35,4.84c0,3.07.89,5.3,2.65,6.7a7.12,7.12,0,0,0,1.82,1,80.14,80.14,0,0,0,7.72-2.75,34.11,34.11,0,0,0,3.79,3.81c2.52,0,4.7-.15,6.52-.31q4-.35,8.19-.75l-1.22,7.77a31.36,31.36,0,0,0,6.4.66h0c.45,0,.9,0,1.34,0l11.29-24.82c-5.61,2.91-9.69,3.86-12.63,3.87h0a9.38,9.38,0,0,1-3.85-.75,255.35,255.35,0,0,0,22.49-16.31l12.17-26.75H827c.57-.54,1.13-1.06,1.7-1.61,32.36-30.87,67.73-70.43,100-107q-8.87,10.81-18.32,22.53c-26.07,32.24-53,65.55-76.85,90.26l5.57,40.58L856.89,660l4.82-30.38H890.9c1.16,0,2.26.06,3.33.14l36.19-29.31-29.77,30.45a17.2,17.2,0,0,1,6.35,3.37,14.81,14.81,0,0,1,4.1,6,24.44,24.44,0,0,1,1.39,8.56l10.64-10.89L922,629.6h9.28l140.57-143.78a10.5,10.5,0,0,0-14.11-15.5l-93.39,75.62,111.41-110.7a10.5,10.5,0,0,0,.76-14.06,28.59,28.59,0,0,0-22.8-11.13h0a34.29,34.29,0,0,0-3.76.22c7.92-7.14,9.09-9.57,9.49-13.26a10.74,10.74,0,0,0-2.34-7.95,16.41,16.41,0,0,0-12.66-6.11,24.11,24.11,0,0,0-9.15,1.78c2.47-2.57,4.65-5,6.57-7.15,5.66-6.5,17.43-20,8.94-30.51-2.41-3-6.92-6.63-14.67-7.06-6.69-.37-16.58,1.25-35.5,11.6a10.51,10.51,0,0,0-1.39-11,13.34,13.34,0,0,0-10.1-4.94c-7.91-.25-18,5-45.85,32.7-12.33,12.23-26.57,27.24-42.5,44.33-33.28,29.47-73,64.83-112.22,100.3-56.41,51-100.9,92.23-132.22,122.58q-7.9,7.65-14.72,14.42a33.94,33.94,0,0,1-10.07,1.41,14.39,14.39,0,0,1-6.06-1.37c4.94-6.88,19.4-23.73,61.57-64.11,32.59-31.22,77-72,132-121.21,90-80.52,179.47-157.77,187.3-164.53l.5-.43,0,0h0a10.5,10.5,0,0,0-13.71-15.91h0l-.56.48c-7.17,6.18-79.47,68.46-154.28,131.14-21.72,18.21-40.75,34-57.44,47.75L936.73,309.08a10.5,10.5,0,0,0-14.38-15.29c-.74.66-74.86,66.85-152.45,133.12C662,519.12,620,549.37,603.83,559.16c1.95-4.15,5.67-10.25,12.75-18.94,11.93-14.64,31-33.59,56.67-56.31C721.61,441.1,787,390.39,844.74,345.64c38.47-29.82,74.8-58,101.36-80.14,38.71-32.3,46.85-43.51,47.83-52a13.28,13.28,0,0,0-2.79-10A10.49,10.49,0,0,0,976.37,202L757.5,379.21,877.77,261.14a10.5,10.5,0,0,0,.8-14.1,22.62,22.62,0,0,0-17.71-8.6h-.46c-10.42,0-22.77,6.26-37.5,17.93A10.52,10.52,0,0,0,821,246.6a11.16,11.16,0,0,0-7.85-4.1c-4.3-.35-8.72,1.06-22.32,11.69C802,243,810.52,233.9,816.63,226.64,824,217.93,835,204.78,827,194.81a11.58,11.58,0,0,0-8.13-4.23c-6.59-.55-14.77-1.21-125.39,92.75-53.13,45.12-104.88,91-105.4,91.46A10.5,10.5,0,0,0,602,390.5c.48-.44,49.3-43.71,100.66-87.44,23.32-19.84,42-35.41,57-47.61l-.48.47c-28.33,27.41-64.92,60.83-97.2,90.31-25.79,23.56-50.15,45.81-67.55,62.45-9.41,9-16.18,15.79-20.7,20.74-5.29,5.79-13.27,14.54-6.59,22.79a12.19,12.19,0,0,0,8.61,4.46c5.56.45,12.35-1.13,38.57-21.78l-70.65,69.9a10.51,10.51,0,0,0-.78,14.08A28.27,28.27,0,0,0,565,529.65a45.49,45.49,0,0,0,17.94-3.81,10.52,10.52,0,0,0,10.39,10.28c-9,12.66-11.62,20.75-12.33,26.85-1,8.27,2,13.85,4.57,17.07a12.36,12.36,0,0,0,8.76,4.51c7,.57,17.72-2.36,70.86-43.85q17.67-13.8,40-32l-47.53,47a10.5,10.5,0,0,0-.78,14.07,11.3,11.3,0,0,0,7.84,4.13,11.66,11.66,0,0,0,5.18-.49q-4.75,4.56-9.17,8.86c-18.92,18.4-33.25,33.13-42.6,43.79-11.9,13.57-20.42,24.69-13,33.82a33,33,0,0,0,16.19,11q-3.94,4.15-7.12,7.7a146.57,146.57,0,0,0-11.59,14.19c-2,2.85-7.86,11.51-1.89,18.89a10.49,10.49,0,0,0,15.53.87c.44-.43,21.1-20.78,53.1-51.44,21.83-11.61,48.66-32.28,81.64-62.72,38.58-35.59,79.73-79.1,117.8-120.1,33-28.41,61.75-51.95,86-70.32,41.77-31.64,62.6-42.15,72.56-45.51-5.87,6.89-17.68,19-41.47,40.1C958,427.15,922,456.93,884,488.46c-46.21,38.29-94,77.88-128.79,109.72-19,17.43-32.57,31-41.34,41.58-6.4,7.69-19.7,23.69-10.15,35.49a34.41,34.41,0,0,0,20.53,12.48A35.31,35.31,0,0,1,723,678.08Zm91.27-65.28c-6,5.71-11.6,10.85-16.86,15.48,12.23-13.5,28.45-29.49,48.41-47.73l3.81-3.47C837.58,589.78,825.69,601.87,814.23,612.8Zm-2.92-317.65a319.52,319.52,0,0,1,24.31-22.06l-51.91,51C793.33,313.55,802.56,303.82,811.31,295.15ZM570.29,508,749.84,330.36Q734.17,348,716.4,368.48c-30.41,34.94-61.85,71.07-89.46,98C596.92,495.67,579.88,505.57,570.29,508Zm431.79-39.8c24.84-25.74,39.26-34.43,47.51-36.57L939.33,541.19C961,514.52,982.75,488.23,1002.08,468.2Z" transform="translate(-540.55 -190.5)" style="fill:#fff"/></svg>