<?xml version="1.0" encoding="UTF-8"?>
<!DOCTYPE svg PUBLIC "-//W3C//DTD SVG 1.1//EN" "http://www.w3.org/Graphics/SVG/1.1/DTD/svg11.dtd">
<!-- Creator: CorelDRAW X8 -->
<svg xmlns="http://www.w3.org/2000/svg" xml:space="preserve" width="360px" height="150px" version="1.1" shape-rendering="geometricPrecision" text-rendering="geometricPrecision" image-rendering="optimizeQuality" fill-rule="evenodd" clip-rule="evenodd"
viewBox="0 0 360 150"
 xmlns:xlink="http://www.w3.org/1999/xlink">
 <g id="PowerClip_x0020_Contents">
  <metadata id="CorelCorpID_0Corel-Layer"/>
  <path fill="#1A1A1A" d="M83 117c1,0 1,0 2,1l2 3c-2,2 -4,4 -6,5 -3,2 -5,3 -8,5 -3,1 -6,2 -9,2 -4,1 -7,1 -11,1 -7,0 -13,-1 -19,-3 -5,-2 -10,-6 -14,-10 -4,-4 -7,-9 -9,-16 -3,-6 -4,-12 -4,-20 0,-7 2,-14 4,-20 2,-6 5,-11 10,-16 4,-4 9,-7 15,-10 5,-2 12,-3 19,-3 3,0 6,0 9,1 3,0 6,1 8,2 3,1 5,2 8,3 2,2 4,4 6,5l-2 4c0,0 -1,0 -2,0 0,0 -1,0 -1,0 -1,-1 -2,-1 -3,-2 -1,-1 -2,-2 -3,-2 -2,-1 -3,-2 -5,-3 -2,0 -4,-1 -7,-2 -2,0 -5,0 -8,0 -6,0 -12,1 -16,3 -5,2 -10,5 -13,8 -4,4 -6,9 -8,14 -2,5 -3,11 -3,18 0,7 1,13 3,18 1,6 4,10 8,14 3,4 7,7 12,9 5,1 10,2 15,2 4,0 7,0 9,0 3,-1 6,-1 8,-2 2,-1 4,-2 6,-4 2,-1 4,-2 6,-4 0,0 1,-1 1,-1 0,0 0,0 0,0zm83 3c1,0 2,0 3,0 1,1 2,1 3,2 0,0 1,1 1,2 0,0 0,1 0,2 0,1 0,2 0,3 0,0 0,1 -1,2 0,0 -1,1 -1,1 -1,1 -1,2 -2,2l-5 6c0,-1 1,-1 1,-1 1,0 1,0 2,0l5 0c1,0 1,0 1,0 1,1 1,1 1,1l0 3 -16 0 0 -2c0,0 0,0 0,0 1,-1 1,-1 1,-1l7 -7c0,-1 1,-1 1,-2 1,0 1,-1 2,-1 0,-1 0,-1 0,-2 0,-1 1,-1 1,-2 0,0 -1,-1 -1,-1 0,-1 0,-1 0,-1 -1,0 -1,-1 -1,-1 -1,0 -1,0 -2,0 -1,0 -1,0 -2,1 -1,0 -1,1 -1,2 0,0 -1,0 -1,0 0,1 0,1 -1,1 0,0 0,0 0,0l-2 -1c0,-1 0,-2 1,-3 0,0 1,-1 1,-2 1,0 2,-1 3,-1 0,0 1,0 2,0zm-19 14c-1,0 -1,-1 -2,-1 -1,0 -2,0 -2,-1 -1,-1 -1,-1 -2,-2 0,-1 0,-2 0,-3 0,-1 0,-2 0,-3 1,-1 1,-1 2,-2 1,-1 1,-1 2,-2 1,0 2,0 4,0 1,0 2,0 3,0 1,1 1,1 2,2 1,0 1,1 2,2 0,1 0,2 0,3 0,1 0,2 0,2 0,1 0,1 -1,2 0,1 0,1 0,2 -1,0 -1,1 -1,1l-6 8c0,0 0,0 0,0 -1,1 -1,1 -2,1l-3 0 7 -9c0,0 0,-1 0,-1 1,0 1,0 1,0 -1,0 -1,0 -2,0 -1,1 -1,1 -2,1zm5 -7c0,-1 0,-1 0,-2 0,0 0,-1 -1,-1 0,0 0,-1 -1,-1 0,0 -1,0 -1,0 -1,0 -2,0 -2,0 -1,0 -1,1 -1,1 -1,0 -1,1 -1,1 0,1 0,1 0,2 0,1 0,2 1,3 0,0 1,1 2,1 1,0 2,0 2,-1 1,0 1,0 1,0 1,-1 1,-1 1,-2 0,0 0,-1 0,-1zm-16 -5c0,0 0,1 0,1 -1,0 -1,1 -2,1l-6 0 -1 4c1,0 2,0 3,0 1,0 2,0 3,0 1,1 1,1 2,2 1,1 1,1 1,2 1,1 1,2 1,3 0,1 0,2 -1,3 0,1 -1,2 -1,3 -1,0 -2,1 -3,1 -1,1 -2,1 -4,1 0,0 -1,0 -2,0 0,0 -1,-1 -1,-1 -1,0 -1,0 -2,-1 0,0 -1,0 -1,-1l1 -1c0,-1 1,-1 1,-1 0,0 1,0 1,0 0,0 0,1 1,1 0,0 1,0 1,0 0,1 1,1 2,1 0,0 1,0 2,-1 0,0 1,0 1,-1 0,0 1,-1 1,-1 0,-1 0,-1 0,-2 0,-1 0,-2 -1,-3 -1,-1 -2,-1 -3,-1 -1,0 -2,0 -4,1l-2 -1 2 -11 11 0 0 2zm-35 21l14 -41 0 0c-5,-5 -11,-9 -18,-12 0,-1 -1,-2 -1,-3l11 0c0,0 0,0 0,0 -1,0 -2,2 -2,2 0,3 3,3 3,3l9 0c1,3 4,4 7,4 3,0 5,-1 7,-4l37 0c2,3 4,4 7,4 3,0 6,-1 7,-4l5 0c2,0 3,-1 3,-1 1,-2 -1,-4 -1,-4 0,0 0,0 0,0l11 0c-1,1 -1,2 -2,3 -7,3 -13,7 -17,13l0 -1 14 41 -6 2 -13 -37 1 0c0,0 -1,1 -1,1 -8,3 -18,6 -28,6 -11,0 -20,-3 -29,-6l0 -1 -12 37 -6 -2zm-5 -67c14,-6 26,-15 34,-28 1,0 2,0 3,-1l0 0 15 -42 14 42 0 0c1,1 2,1 3,1 9,13 21,22 35,28 0,1 1,3 1,4l0 1 -12 0c-1,-5 -2,-4 -2,-4 -6,0 -18,-2 -18,-3 -4,-6 -8,-9 -8,-9l-36 0c-6,8 -17,9 -17,9 -1,0 -2,3 -2,7l-11 0 0 -1c0,-1 0,-3 1,-4zm44 -30c3,0 5,0 8,0 2,0 5,0 7,0l-7 -22 -8 22zm207 3c0,0 -1,1 -2,1 0,0 -1,-1 -2,-1 -1,-1 -2,-2 -4,-3 -1,-1 -3,-2 -6,-3 -2,-1 -5,-1 -8,-1 -4,0 -7,0 -10,1 -2,1 -5,2 -6,4 -2,2 -3,4 -4,6 -1,2 -2,5 -2,7 0,4 1,6 2,8 2,3 3,4 6,6 2,1 5,3 7,4 3,1 6,2 9,3 3,1 6,2 9,3 3,1 6,3 8,5 2,1 4,4 6,6 1,3 2,6 2,10 0,4 -1,8 -2,12 -2,3 -4,6 -7,9 -2,3 -5,5 -9,6 -4,2 -8,2 -13,2 -7,0 -12,-1 -17,-3 -4,-2 -8,-5 -12,-9l2 -3c1,-1 1,-1 2,-1 0,0 1,0 2,1 0,0 1,1 2,2 1,0 2,1 3,2 1,1 3,2 5,3 1,1 3,1 5,2 3,0 5,1 8,1 4,0 7,-1 10,-2 3,-1 6,-3 8,-5 2,-2 3,-4 4,-7 2,-3 2,-6 2,-9 0,-3 -1,-6 -2,-8 -1,-2 -3,-4 -6,-6 -2,-1 -4,-2 -7,-3 -3,-1 -6,-2 -9,-3 -3,-1 -6,-2 -9,-4 -3,-1 -6,-2 -8,-4 -2,-2 -4,-4 -5,-7 -2,-3 -2,-6 -2,-10 0,-4 0,-7 1,-10 2,-3 3,-5 6,-8 2,-2 5,-4 9,-5 3,-2 7,-2 12,-2 5,0 9,1 13,2 4,2 8,4 11,7l-2 4zm-123 41l0 43 -7 0 0 -96 24 0c11,0 20,2 25,6 6,5 8,11 8,19 0,4 0,7 -2,10 -1,3 -3,6 -5,8 -2,3 -5,5 -9,6 -3,1 -7,2 -11,3 1,1 2,2 3,3l33 41 -6 0c-1,0 -1,0 -2,0 0,0 -1,-1 -1,-1l-31 -40c-1,-1 -2,-1 -3,-2 -1,0 -2,0 -4,0l-12 0zm0 -5l16 0c5,0 8,-1 12,-2 3,-1 6,-2 8,-4 3,-2 5,-4 6,-7 1,-3 2,-6 2,-9 0,-7 -3,-12 -7,-16 -5,-3 -11,-5 -20,-5l-17 0 0 43z"/>
 </g>
</svg>
