<?xml version="1.0" encoding="UTF-8"?>
<!DOCTYPE svg PUBLIC "-//W3C//DTD SVG 1.1//EN" "http://www.w3.org/Graphics/SVG/1.1/DTD/svg11.dtd">
<!-- Creator: CorelDRAW X8 -->
<svg xmlns="http://www.w3.org/2000/svg" xml:space="preserve" width="416px" height="166px" version="1.1" shape-rendering="geometricPrecision" text-rendering="geometricPrecision" image-rendering="optimizeQuality" fill-rule="evenodd" clip-rule="evenodd"
viewBox="0 0 416 166"
 xmlns:xlink="http://www.w3.org/1999/xlink">
 <g id="Layer_x0020_1">
  <metadata id="CorelCorpID_0Corel-Layer"/>
  <g id="_2413799548880">
   <path fill="#1A1A1A" d="M111 118c-6,-10 -15,-19 -27,-23 -1,-2 -1,-3 -2,-4l14 0c0,0 0,0 0,0 -2,0 -2,3 -2,2 -1,4 3,4 3,4l11 0c2,4 5,6 9,6 4,0 7,-2 8,-6l47 0c2,4 5,6 9,6 3,0 7,-2 8,-6l6 0c3,0 4,-1 4,-1 1,-2 -1,-5 -1,-5 0,0 0,0 0,0l13 0c0,1 -1,2 -2,4 -11,4 -21,13 -27,23 -10,5 -22,7 -35,8 -13,-1 -25,-3 -36,-8zm-29 -41c18,-7 32,-18 43,-34 7,-2 14,-3 22,-3 7,0 15,1 21,3 11,16 25,27 44,34 0,2 0,4 0,6l0 0 -14 0c-1,-5 -3,-5 -3,-5 -7,1 -22,-2 -22,-2 -5,-8 -10,-12 -10,-12l-44 0c-9,10 -22,10 -22,10 -1,0 -2,5 -2,9l-14 0 0 0c0,-2 0,-4 1,-6z"/>
   <path fill="#1A1A1A" fill-rule="nonzero" d="M147 2c22,0 42,9 57,24 14,14 23,35 23,57l0 0 -8 0 0 0c0,-20 -8,-38 -21,-51 -13,-14 -31,-22 -51,-22 -20,0 -39,8 -52,22 -13,13 -21,31 -21,51l0 0 -8 0 0 0c0,-22 9,-43 24,-57 14,-15 34,-24 57,-24zm80 89c-2,19 -10,36 -23,49 -15,15 -35,24 -57,24 -23,0 -43,-9 -57,-24 -13,-13 -22,-30 -24,-49l8 0c2,17 10,32 21,43 13,13 32,21 52,21 20,0 38,-8 51,-21 11,-11 19,-26 21,-43l8 0z"/>
   <path fill="#1A1A1A" fill-rule="nonzero" d="M25 36l2 27 -2 -3c3,-6 7,-11 11,-15 5,-4 10,-7 15,-10 5,-2 10,-3 13,-3l-1 21c-7,0 -13,1 -19,4 -5,4 -9,8 -13,13 -2,4 -4,9 -4,13l-22 0 0 -47 20 0zm2 55l0 40 -22 0 0 -40 22 0zm249 43l-23 -43 22 0 10 20 -13 0 8 -20 20 0 -22 43 -2 0zm-27 -51l-26 -47 26 0 22 47 -22 0zm35 0l21 -47 24 0 -25 47 -20 0zm87 -47l2 27 -1 -3c2,-6 6,-11 10,-15 5,-4 10,-7 15,-10 5,-2 10,-3 14,-3l-2 21c-7,0 -13,1 -19,4 -5,4 -9,8 -12,13 -3,4 -4,9 -5,13l-21 0 0 -47 19 0zm2 55l0 40 -21 0 0 -40 21 0z"/>
  </g>
 </g>
</svg>
