<?xml version="1.0" encoding="UTF-8"?>
<!DOCTYPE svg PUBLIC "-//W3C//DTD SVG 1.1//EN" "http://www.w3.org/Graphics/SVG/1.1/DTD/svg11.dtd">
<!-- Creator: CorelDRAW X8 -->
<svg xmlns="http://www.w3.org/2000/svg" xml:space="preserve" width="319px" height="109px" version="1.1" shape-rendering="geometricPrecision" text-rendering="geometricPrecision" image-rendering="optimizeQuality" fill-rule="evenodd" clip-rule="evenodd"
viewBox="0 0 319 109"
 xmlns:xlink="http://www.w3.org/1999/xlink">
 <g id="PowerClip_x0020_Contents">
  <metadata id="CorelCorpID_0Corel-Layer"/>
  <path fill="#59C0F7" d="M40 14c22,0 40,18 40,41 0,22 -18,40 -40,40 -22,0 -40,-18 -40,-40 0,-23 18,-41 40,-41zm0 6c20,0 35,15 35,35 0,19 -15,35 -35,35 -19,0 -35,-16 -35,-35 0,-20 16,-35 35,-35zm0 4c17,0 31,14 31,31 0,17 -14,30 -31,30 -17,0 -30,-13 -30,-30 0,-17 13,-31 30,-31zm-12 40c2,0 3,1 3,3 0,1 -1,3 -3,3 -1,0 -3,-2 -3,-3 0,-2 2,-3 3,-3zm24 0c2,0 3,1 3,3 0,1 -1,3 -3,3 -1,0 -3,-2 -3,-3 0,-2 2,-3 3,-3zm0 -24c2,0 3,1 3,3 0,1 -1,3 -3,3 -1,0 -3,-2 -3,-3 0,-2 2,-3 3,-3zm-24 0c2,0 3,1 3,3 0,1 -1,3 -3,3 -1,0 -3,-2 -3,-3 0,-2 2,-3 3,-3zm-6 8c4,0 7,3 7,7 0,4 -3,7 -7,7 -4,0 -7,-3 -7,-7 0,-4 3,-7 7,-7zm18 18c4,0 7,3 7,7 0,4 -3,7 -7,7 -4,0 -7,-3 -7,-7 0,-4 3,-7 7,-7zm18 -18c4,0 7,3 7,7 0,4 -3,7 -7,7 -4,0 -7,-3 -7,-7 0,-4 3,-7 7,-7zm-18 -18c4,0 7,3 7,7 0,4 -3,7 -7,7 -4,0 -7,-3 -7,-7 0,-4 3,-7 7,-7zm0 18c4,0 7,3 7,7 0,4 -3,7 -7,7 -4,0 -7,-3 -7,-7 0,-4 3,-7 7,-7z"/>
  <path fill="black" fill-rule="nonzero" d="M102 48l0 5 3 0c1,0 1,0 2,0 0,-1 0,-1 0,-2l0 -1c0,-1 0,-1 0,-2 -1,0 -1,0 -2,0l-3 0zm-1 23l-7 0c-1,0 -1,-1 -1,-1 0,0 -1,0 -1,-1l0 -27c0,-1 1,-1 1,-2 0,0 0,0 1,0l14 0c3,0 5,1 7,2 1,1 2,3 2,5l0 2c0,1 -1,2 -1,3 0,1 -1,2 -2,2 2,0 3,1 4,2 1,1 1,2 1,4l0 9c0,1 0,1 0,1 0,0 -1,1 -1,1l-7 0c0,0 -1,-1 -1,-1 0,0 0,0 0,-1l0 -6c0,-1 0,-2 -1,-2 0,0 0,0 -1,0l-6 0 0 8c0,1 0,1 0,1 -1,0 -1,1 -1,1z"/>
  <path id="1" fill="black" fill-rule="nonzero" d="M150 63c0,1 0,2 -1,3 0,1 -1,2 -2,3 -1,1 -2,1 -4,2 -2,0 -4,0 -6,0 -3,0 -5,0 -7,0 -2,-1 -3,-1 -4,-2 -1,-1 -2,-2 -2,-3 0,-1 -1,-2 -1,-3l0 -15c0,-1 1,-2 1,-3 0,-2 1,-2 2,-3 1,-1 2,-2 4,-2 2,0 4,-1 7,-1 2,0 4,1 6,1 2,0 3,1 4,2 1,1 2,1 2,3 1,1 1,2 1,3l0 15zm-17 -2c0,1 0,1 1,1 0,1 1,1 3,1 1,0 2,0 2,-1 1,0 1,0 1,-1l0 -11c0,-1 0,-1 -1,-2 0,0 -1,0 -2,0 -2,0 -3,0 -3,0 -1,1 -1,1 -1,2l0 11z"/>
  <path id="2" fill="black" fill-rule="nonzero" d="M173 71l-11 0c0,0 -1,0 -1,-1 -1,0 -1,0 -1,-1l-4 -10c0,-1 -1,-1 -1,-2 0,0 0,-1 0,-1 0,-1 0,-1 0,-2 -1,0 -1,-1 -1,-1l0 -11c0,-1 1,-1 1,-2 0,0 0,0 1,0l7 0c0,0 1,0 1,0 0,1 0,1 0,2l0 11c0,1 0,1 0,1 1,0 1,1 1,1l2 6c0,0 0,0 0,1 0,0 0,0 1,0l0 0c0,0 0,0 1,0 0,-1 0,-1 0,-1l2 -6c0,0 0,-1 0,-1 0,0 0,0 0,-1l0 -11c0,-1 0,-1 1,-2 0,0 0,0 1,0l6 0c1,0 1,0 2,0 0,1 0,1 0,2l0 11c0,0 0,1 0,1 0,1 0,1 0,2 -1,0 -1,1 -1,1 0,1 0,1 0,2l-5 10c0,1 0,1 0,1 -1,1 -1,1 -2,1z"/>
  <path id="3" fill="black" fill-rule="nonzero" d="M196 48l0 5 3 0c1,0 1,0 1,0 1,-1 1,-1 1,-2l0 -1c0,-1 0,-1 -1,-2 0,0 0,0 -1,0l-3 0zm-2 23l-6 0c-1,0 -1,-1 -2,-1 0,0 0,0 0,-1l0 -27c0,-1 0,-1 0,-2 1,0 1,0 2,0l14 0c3,0 5,1 6,2 2,1 2,3 2,5l0 2c0,1 0,2 0,3 -1,1 -1,2 -2,2 1,0 3,1 3,2 1,1 2,2 2,4l0 9c0,1 0,1 0,1 -1,0 -1,1 -2,1l-6 0c-1,0 -1,-1 -1,-1 -1,0 -1,0 -1,-1l0 -6c0,-1 0,-2 0,-2 0,0 -1,0 -1,0l-6 0 0 8c0,1 0,1 -1,1 0,0 0,1 -1,1z"/>
  <path id="4" fill="black" fill-rule="nonzero" d="M227 71l-8 0c-1,0 -1,-1 -2,-1 0,0 0,0 0,-1l0 -9c0,0 0,0 0,-1 1,0 1,0 2,0l8 0c1,0 1,0 1,0 1,1 1,1 1,1l0 9c0,1 0,1 -1,1 0,0 0,1 -1,1z"/>
  <path id="5" fill="black" fill-rule="nonzero" d="M245 49l-2 6 7 0 -2 -6c0,0 -1,0 -1,-1 0,0 0,0 0,0l-1 0c0,0 0,0 -1,0 0,1 0,1 0,1zm-2 20c0,1 0,1 -1,1 0,0 0,1 -1,1l-6 0c-1,0 -1,-1 -1,-1 -1,0 -1,0 -1,-1l0 -11c0,-1 0,-2 1,-3 0,-1 0,-2 1,-4l4 -10c0,0 0,0 0,-1 1,0 1,0 2,0l11 0c1,0 1,0 2,0 0,1 0,1 0,1l4 10c1,2 1,3 1,4 1,1 1,2 1,3l0 11c0,1 0,1 -1,1 0,0 0,1 -1,1l-6 0c-1,0 -1,-1 -1,-1 -1,0 -1,0 -1,-1l0 -6 -7 0 0 6z"/>
  <path id="6" fill="black" fill-rule="nonzero" d="M275 48l0 5 3 0c0,0 1,0 1,0 0,-1 1,-1 1,-2l0 -1c0,-1 -1,-1 -1,-2 0,0 -1,0 -1,0l-3 0zm-2 23l-6 0c-1,0 -1,-1 -2,-1 0,0 0,0 0,-1l0 -27c0,-1 0,-1 0,-2 1,0 1,0 2,0l14 0c3,0 5,1 6,2 1,1 2,3 2,5l0 2c0,1 0,2 -1,3 0,1 0,2 -1,2 1,0 2,1 3,2 1,1 2,2 2,4l0 9c0,1 0,1 -1,1 0,0 0,1 -1,1l-6 0c-1,0 -1,-1 -2,-1 0,0 0,0 0,-1l0 -6c0,-1 0,-2 0,-2 0,0 -1,0 -1,0l-6 0 0 8c0,1 -1,1 -1,1 0,0 0,1 -1,1z"/>
  <path id="7" fill="black" fill-rule="nonzero" d="M310 71l-7 0c-1,0 -1,-1 -1,-1 -1,0 -1,0 -1,-1l0 -21 -6 0c0,0 -1,0 -1,0 0,0 0,-1 0,-1l0 -5c0,-1 0,-1 0,-2 0,0 1,0 1,0l22 0c1,0 1,0 2,0 0,1 0,1 0,2l0 5c0,0 0,1 0,1 -1,0 -1,0 -2,0l-6 0 0 21c0,1 0,1 0,1 0,0 -1,1 -1,1z"/>
  <path fill="black" stroke="black" stroke-width="2.08216" d="M38 0c0,0 21,2 34,15 1,0 20,21 80,19 60,-2 -17,-5 -30,-18 -14,-13 -84,-16 -84,-16z"/>
  <path fill="black" stroke="black" stroke-width="2.08216" d="M38 109c0,0 21,-1 34,-15 1,0 20,-21 80,-19 60,2 -17,5 -30,18 -14,14 -84,16 -84,16z"/>
 </g>
</svg>
