<svg id="ab41ebfa-be58-42b9-8177-2e0969874e06" xmlns="http://www.w3.org/2000/svg" viewBox="0 0 1136 691.42"><title>undraw_positive_attitude</title><path d="M791.78,331.49s-45.7-9.25-39.91,10.41,44,6.94,44,6.94Z" transform="translate(0 0)" style="fill:#ffb8b8"/><path d="M890.37,227.61a4.29,4.29,0,0,1,7.11,2.45l1.56,9.07s7.06,36.29,1,59.33-10.34,53.42-26.68,56.65c-14,2.77-67.14-1.61-82.19-2.94a4.27,4.27,0,0,1-3.9-4.36l.28-13.24a4.29,4.29,0,0,1,3.83-4.18l60.86-6.49a4.28,4.28,0,0,0,3.8-3.66c1.44-10.36,6.13-42.46,10.78-59.33C870.59,247.27,882.93,234.39,890.37,227.61Z" transform="translate(0 0)" style="fill:#575a89"/><rect x="716" y="668.25" width="420" height="2" style="fill:#3f3d56"/><polygon points="850.82 614.61 850.82 642.37 866.44 645.84 876.85 640.64 875.7 618.66 850.82 614.61" style="fill:#ffb8b8"/><polygon points="943.09 614.61 943.09 642.37 958.71 645.84 969.12 640.64 967.96 618.66 943.09 614.61" style="fill:#ffb8b8"/><path d="M882.06,389s-20.83,42.23-20.25,75.2a452.71,452.71,0,0,1-2.89,59.58l-10.41,98.92,33.55,1.73L897.68,518l30.08-82.15,11.57,97.76L942.22,632h28.92s13.31-93.13,5.79-114c0,0,17.35-116.85,3.47-122.64S882.06,389,882.06,389Z" transform="translate(0 0)" style="fill:#2f2e41"/><path d="M861.23,634.85s-5.78-21.4-13.88-10.41-31.24,29.5-31.24,29.5-34.7,18.51-2.89,23.14,35.29-5.78,35.29-5.78,5.2-2.9,9.83-1.16,24.88,1.16,26-5.78-6.36-45.12-8.67-38.18S861.23,634.85,861.23,634.85Z" transform="translate(0 0)" style="fill:#2f2e41"/><path d="M967.67,634.28s0-6.37-11-6.95S944,634.28,944,634.28s-2.89,2.89-3.47,11.56,0,31.24,0,31.24S935.28,694.43,959,691s15-21.4,15-21.4Z" transform="translate(0 0)" style="fill:#2f2e41"/><path d="M925.44,173.24l-2.89,32.4-5.21,12.15,13.89,19.66,34.13-31.81S959,188.28,963,178.45Z" transform="translate(0 0)" style="fill:#ffb8b8"/><path d="M1003,228.78l-.27,2.85L992.54,339.84s-.39,5-1.13,11.74c-1.25,11.35-3.48,27.5-6.39,32.22-4.62,7.52-1.15,13.89-1.15,13.89-26.61,15.61-105.28-6.95-105.28-6.95L896.52,319s-16.2-74.63-14.46-81.57,38.18-31.81,38.18-31.81l1.07,2.89c15.53,20.82,31.32,2.89,36-1.16l9.25-8.1Z" transform="translate(0 0)" style="fill:#575a89"/><path d="M884,427.25c-55.15,7.48-107.76,10.22-156.44,5.62a377.78,377.78,0,0,1-51.32-8.82c-31-7.32-69-7.32-110.7-3.42A318,318,0,0,0,491,436.43c-32.36,11.2-67.8,10.23-105.37.86a192.64,192.64,0,0,1-44.25-17.62c-27.47-14.76-60-9.42-95.41,7.58v-132c33.08-14.4,65.31-16.73,96.51-4.58a204,204,0,0,0,35.14,10.48,277,277,0,0,0,130.55-5.9c57.37-19.44,117.38-13.39,178.15,0,67.71,14.3,133.7,15.15,197.65,0Z" transform="translate(0 0)" style="fill:#3f3d56"/><rect y="668.25" width="420" height="2" style="fill:#3f3d56"/><rect x="508.25" y="6.67" width="36.47" height="36.47" transform="translate(58.08 266.58) rotate(-30)" style="fill:#ff6584"/><rect x="391.25" y="165.67" width="36.47" height="36.47" transform="translate(-37.09 229.38) rotate(-30)" style="fill:#3f3d56"/><rect x="712.25" y="123.67" width="36.47" height="36.47" transform="translate(26.91 384.26) rotate(-30)" style="fill:#d0cde1"/><polygon points="178.85 423.6 197.95 512.01 139.95 642.15 173.9 657 238.97 507.77 197.37 376.7 172.62 383.07 178.85 423.6" style="fill:#2f2e41"/><path d="M161.88,399.29S169,412,184.51,422.63s48.09,80.63,48.09,80.63L197.24,644.72,246,658.16l26.88-166.22L217.75,367.46Z" transform="translate(0 0)" style="fill:#2f2e41"/><path d="M144.19,637.2S137.12,645,140,650.64s4.24,20.51,4.24,20.51h6.37v-17l20.51,19.1s47.39,4.24,46.68,0-28.29-14.14-28.29-14.14L176,638.61Z" transform="translate(0 0)" style="fill:#2f2e41"/><path d="M206.43,639.06s-7.07,7.78-4.24,13.44S206.43,673,206.43,673h6.37V656l20.51,19.09s47.39,4.25,46.68,0S251.7,661,251.7,661l-13.44-20.52Z" transform="translate(0 0)" style="fill:#2f2e41"/><circle cx="189.46" cy="178.62" r="26.88" style="fill:#a0616a"/><path d="M167.53,180s-2.12,26.88-15.56,36.78-13.44,18.39-13.44,18.39L193,260l-12.74-26.87s-3.53-1.42,2.13-8.49S193,200.54,193,200.54Z" transform="translate(0 0)" style="fill:#a0616a"/><path d="M223.06,370.64h0a152.44,152.44,0,0,1-50.22,29.16L160,404.25s-27.14-32.94-13.44-58.9a40.81,40.81,0,0,1,11.78-14l-.28-1.24-6.89-30-.61-2.69-20.51-4.95-.19.05c-1.53.4-11.94,2.31-4.06-22,5.25-16.16,9-31.55,11.19-40.95a10,10,0,0,1,11.93-7.54l.41.1c6.57,1.8,14.73,5.22,19.62,11.61,9.19,12,11.05-.53,11.05-.53s25.73,28.83,24.31,41.56a50.83,50.83,0,0,0,.31,10.24h0c.17,1.52.38,3.09.61,4.71,1.76,11.91,5.15,25.75,6.4,30.61.09.35.17.66.23.91l.23.91Z" transform="translate(0 0)" style="fill:#575a89"/><path d="M186.63,334.93,181,354s-21.7-5.53-34.41-8.67a40.81,40.81,0,0,1,11.78-14l-.28-1.24-6.89-30-.61-2.69-20.51-4.95-.19.05-1.23-9.25s35.37,2.13,37.49,10.61-2.12,17-4.24,18.39,0,0,4.24,2.13-1.42,0-4.24,4.24.7.71,1.41,2.83,0-.71-.71,2.83,2.83.7,3.54.7S186.63,334.93,186.63,334.93Z" transform="translate(0 0)" style="opacity:0.20000000298023224;isolation:isolate"/><path d="M180.26,331.39l46,12S251,318,264.43,325.73s-24.05,25.46-24.05,25.46L227,354l-48.81-5.65Z" transform="translate(0 0)" style="fill:#a0616a"/><path d="M128.63,280.47l2.83,21.21s-2.12,0,0,5,0,14.85,0,14.85-4.24.71-.71,2.83,7.08,7.78,5.66,9.9-4.24,4.95,2.12,6.36S181,351.19,181,351.19l5.66-19.09s-19.8-9.9-20.51-9.9-4.24,2.82-3.54-.71,1.42-.71.71-2.83-4.24,1.41-1.41-2.83,8.48-2.12,4.24-4.24-6.37-.71-4.24-2.13,6.36-9.9,4.24-18.39S128.63,280.47,128.63,280.47Z" transform="translate(0 0)" style="fill:#575a89"/><path d="M183.26,226.11l2.13-3.39a7.07,7.07,0,0,0-2.22-9.75l-16.24-10.21a7.07,7.07,0,0,0-9.75,2.22L155,208.37a7,7,0,0,0-6,3.3L143.79,220a7.07,7.07,0,0,0,2.22,9.75h0l21.88,13.76a7.08,7.08,0,0,0,9.76-2.22l5.24-8.34A7.05,7.05,0,0,0,183.26,226.11Z" transform="translate(0 0)" style="fill:#575a89"/><path d="M188.52,178.15c1.51-2.19.85-5.24,1.92-7.68,1.69-3.82,6.68-4.6,10.85-4.86a32,32,0,0,1,8.3.23,8,8,0,0,1,5.66,4.31c.59,1.25.53-2.62.25-7.6a24,24,0,0,0-17.89-21.93l-.18,0c-5-1.3-10.24-2.28-15.43-1.8s-10.38,2.59-13.7,6.59c-1.52,1.83-2.62,4-4.3,5.68-3,2.95-7.28,3.94-11.25,5.24A33.58,33.58,0,0,0,140.4,163a18.16,18.16,0,0,0-6.19,12.34c-.22,5.51,3.15,11.28,8.77,12.51a6.2,6.2,0,0,1,2.68,1.23c5.29,4.31-1,8.54-1,13.25-.06,3.93,4.25,6.59,8.17,6.87a15.81,15.81,0,0,0,16.05-12.13c.67-3.21.3-6.53,0-9.79-.35-3.74,7.88-12.32,2.43-6a9.12,9.12,0,0,0-2.13,4.21c-1,5.12,3.63,7,6.5,9.88A12.2,12.2,0,0,1,178.29,208a14.09,14.09,0,0,0,3-17.72c-.92-1.48-2.11-2.78-3-4.28-1.34-2.36-1.61-7.42,2.32-7.18C183.43,179,186.28,181.42,188.52,178.15Z" transform="translate(0 0)" style="fill:#2f2e41"/><circle cx="945.11" cy="159.36" r="29.5" style="fill:#ffb8b8"/><path d="M1001.53,232.78,991.39,341s-.4,5-1.14,11.74c-21.54,5.15-81,9.08-81,9.08L906.35,341l65.95-17.94s-8.1-45.12,1.16-63.63a144.3,144.3,0,0,0,6.07-13.84,20.07,20.07,0,0,1,22-12.81Z" transform="translate(0 0)" style="opacity:0.20000000298023224;isolation:isolate"/><path d="M912.72,338.1s-45.7-9.25-39.92,10.42,44,6.94,44,6.94Z" transform="translate(0 0)" style="fill:#ffb8b8"/><path d="M985,225.88l17.94,2.9s12.72,34.7,10.41,58.42-1.74,54.38-17.35,60.16-85.62,10.41-85.62,10.41L907.51,337l66-17.93s-8.1-45.12,1.15-63.64S985,225.88,985,225.88Z" transform="translate(0 0)" style="fill:#575a89"/><path d="M920,129.4l-5.67-2.27s11.85-13.06,28.35-11.92L938,110.1s11.34-4.54,21.65,7.38c5.42,6.26,11.69,13.63,15.6,21.92h6.07L978.79,145l8.87,5.58-9.11-1a31.26,31.26,0,0,1,.25,9.26,11.93,11.93,0,0,1-4.39,7.83h0s-7-14.55-7-16.82v5.67s-5.67-5.1-5.67-8.51l-3.09,4H938l3.09-5.11-11.85,1.71,4.64-6.25-18.36,25.78S905,137.91,920,129.4Z" transform="translate(0 0)" style="fill:#2f2e41"/><circle cx="565" cy="363.25" r="108" style="fill:#2196f3"/><path d="M618,384.72c0,6.63-24.33,23.25-52.5,23.25S516,391.35,516,384.72,537.33,387,565.5,387,618,378.09,618,384.72Z" transform="translate(0 0)" style="fill:#d0cde1"/><circle cx="604" cy="332.25" r="12" style="fill:#3f3d56"/><circle cx="526" cy="332.25" r="12" style="fill:#3f3d56"/><circle cx="533" cy="326.25" r="6" style="fill:#d0cde1"/><circle cx="594" cy="326.25" r="6" style="fill:#d0cde1"/><circle cx="567" cy="219.25" r="43" style="fill:#2196f3"/><path d="M553.19,223.7c15.19,9,15.73,36.14,15.73,36.14s-24.07,12.43-39.26,3.39-15.73-36.13-15.73-36.13S538,214.66,553.19,223.7Z" transform="translate(0 0)" style="fill:#3f3d56"/><path d="M606.92,258.33c-13.73,11.13-39.34,2.3-39.34,2.3s-3.37-26.89,10.35-38,39.34-2.3,39.34-2.3S620.64,247.19,606.92,258.33Z" transform="translate(0 0)" style="fill:#3f3d56"/></svg>