<svg id="bd3d7bff-83b6-4602-8d29-a1c6e302fae5" xmlns="http://www.w3.org/2000/svg" viewBox="0 0 764.11 484"><title>undraw_Marketing</title><path d="M758.38,317h-295a5.74,5.74,0,0,1-5.74-5.74V5.74A5.74,5.74,0,0,1,463.39,0h295a5.74,5.74,0,0,1,5.73,5.74V311.26A5.74,5.74,0,0,1,758.38,317ZM463.39,2a3.73,3.73,0,0,0-3.74,3.74V311.26a3.73,3.73,0,0,0,3.74,3.74h295a3.73,3.73,0,0,0,3.73-3.74V5.74A3.73,3.73,0,0,0,758.38,2Z" style="fill:#3f3d56"/><path d="M666.48,128.41a63.23,63.23,0,1,1-55.6-33.12c.5,0,1,0,1.5,0l-.67-27h-.83a90.18,90.18,0,1,0,77.35,43.77Z" style="fill:#2196f3"/><path d="M666.48,128.41l21.75-16.35A90.15,90.15,0,0,0,611.71,68.3l.67,27A63.19,63.19,0,0,1,666.48,128.41Z" style="fill:#e6e6e6"/><rect x="671.3" y="229.97" width="1.57" height="45.01" transform="translate(16.94 546.11) rotate(-44.73)" style="fill:#3f3d56"/><rect x="644.31" y="59.42" width="45.01" height="1.57" transform="translate(288.11 612.34) rotate(-60.71)" style="fill:#3f3d56"/><path d="M711.63,280.82H664.88a3.15,3.15,0,0,1-3.14-3.14V271.1a3.15,3.15,0,0,1,3.14-3.14h46.75a3.14,3.14,0,0,1,3.13,3.14v6.58A3.14,3.14,0,0,1,711.63,280.82Z" style="fill:#2196f3"/><path d="M699.77,41.13H653A3.13,3.13,0,0,1,649.89,38V31.42A3.14,3.14,0,0,1,653,28.28h46.75a3.15,3.15,0,0,1,3.14,3.14V38A3.14,3.14,0,0,1,699.77,41.13Z" style="fill:#e6e6e6"/><path d="M410.49,145.87H77.12a5.47,5.47,0,0,1-5.46-5.46V6.46A5.47,5.47,0,0,1,77.12,1H410.49A5.47,5.47,0,0,1,416,6.46v134A5.47,5.47,0,0,1,410.49,145.87ZM77.12,3a3.46,3.46,0,0,0-3.46,3.46v134a3.46,3.46,0,0,0,3.46,3.46H410.49a3.46,3.46,0,0,0,3.47-3.46V6.46A3.46,3.46,0,0,0,410.49,3Z" style="fill:#3f3d56"/><path d="M207.08,112.63h-32.3a3.47,3.47,0,0,1-3.43-2.92,135.46,135.46,0,0,1,0-41.29,3.46,3.46,0,0,1,3.43-2.92h32.3a3.44,3.44,0,0,1,2.72,1.31,3.52,3.52,0,0,1,.65,3,82.8,82.8,0,0,0,0,38.5,3.51,3.51,0,0,1-.65,3A3.45,3.45,0,0,1,207.08,112.63Z" style="fill:#e6e6e6"/><path d="M315.22,112.63h-32.3a3.49,3.49,0,0,1-3.43-2.92,135.46,135.46,0,0,1,0-41.29,3.48,3.48,0,0,1,3.43-2.92h32.3a3.43,3.43,0,0,1,2.72,1.31,3.49,3.49,0,0,1,.65,3,82.93,82.93,0,0,0,0,38.5,3.47,3.47,0,0,1-.65,3A3.43,3.43,0,0,1,315.22,112.63Z" style="fill:#e6e6e6"/><path d="M152.14,81.38h-32.3a3.48,3.48,0,0,1-3.43-2.92,135.52,135.52,0,0,1,0-41.3,3.47,3.47,0,0,1,3.43-2.92h32.3a3.45,3.45,0,0,1,2.72,1.32,3.51,3.51,0,0,1,.65,3,82.93,82.93,0,0,0,0,38.5,3.48,3.48,0,0,1-3.37,4.32Z" style="fill:#2196f3"/><path d="M261.37,81.38h-32.3a3.48,3.48,0,0,1-3.37-4.32,82.93,82.93,0,0,0,0-38.5,3.48,3.48,0,0,1,3.37-4.32h32.3a3.47,3.47,0,0,1,3.43,2.92,135.52,135.52,0,0,1,0,41.3A3.48,3.48,0,0,1,261.37,81.38Z" style="fill:#2196f3"/><path d="M367.78,81.38h-32.3a3.48,3.48,0,0,1-3.37-4.32,82.93,82.93,0,0,0,0-38.5,3.48,3.48,0,0,1,3.37-4.32h32.3a3.48,3.48,0,0,1,3.43,2.92,135.52,135.52,0,0,1,0,41.3A3.48,3.48,0,0,1,367.78,81.38Z" style="fill:#ff6584"/><path d="M187.94,319.47A10.69,10.69,0,0,1,180.1,305l-44.34-95.19,22.49-6.32,36.55,95.67a10.8,10.8,0,0,1-6.86,20.33Z" style="fill:#a0616a"/><polygon points="102.08 471.36 114.34 471.36 120.17 424.08 102.08 424.08 102.08 471.36" style="fill:#a0616a"/><path d="M138,482.75H99.45V467.86H123.1A14.88,14.88,0,0,1,138,482.75Z" style="fill:#2f2e41"/><polygon points="38.35 458.15 49.62 462.98 73.61 421.8 56.97 414.68 38.35 458.15" style="fill:#a0616a"/><path d="M66.88,482.75,31.46,467.58h0l5.86-13.69h0l21.73,9.31a14.9,14.9,0,0,1,7.83,19.55Z" style="fill:#2f2e41"/><circle cx="132.39" cy="140.57" r="24.56" style="fill:#a0616a"/><path d="M114.65,459.8l-13.5-2.57a4.46,4.46,0,0,1-3.63-4.88l9-87.26a3.5,3.5,0,0,0-6.7-1.73L60.69,454.53a4.49,4.49,0,0,1-5.9,2.36l-.06,0-11-4.87a4.49,4.49,0,0,1-2.44-5.54L68,366.28a3.15,3.15,0,0,0,.16-.69l8.67-73.25a4.52,4.52,0,0,1,2.78-3.64L107,277.58a4.48,4.48,0,0,1,4.83.94l34.57,33.66a4.47,4.47,0,0,1,1.28,4.1l-27.81,140a4.51,4.51,0,0,1-4.41,3.62A3.86,3.86,0,0,1,114.65,459.8Z" style="fill:#2f2e41"/><path d="M99.26,296.38c-4.78-5.54-8.28-8.05-10.66-7.66s-3.74,3.7-5.19,7.2c-2,4.79-4.21,10.21-9.73,10.63a4.65,4.65,0,0,1-4.57-1.87c-4.34-6.46,6.08-27.82,7-29.74l-.49-101.06a4.5,4.5,0,0,1,2.35-4c28.62-15.43,67.26,11.41,74.71,17h0a4.46,4.46,0,0,1,1.82,3.84c-.9,16.93-5.39,102.32-5.39,121.37,0,5.28-1.82,8.63-5.41,10a10.77,10.77,0,0,1-3.77.62C129,322.63,111.08,310.07,99.26,296.38Z" style="fill:#ccc"/><path d="M139.2,247.31a4.46,4.46,0,0,1-2-3.57l-1.94-45.26A11.75,11.75,0,0,1,158,193.79l14.5,38a4.5,4.5,0,0,1-2.6,5.81l-26.58,10.14a4.42,4.42,0,0,1-4.07-.44Z" style="fill:#ccc"/><path d="M71.65,318a10.75,10.75,0,0,1-2.92-14.91,10.57,10.57,0,0,1,1.19-1.48l-4.69-104.9,23.2,2.73L85.74,301.86A10.8,10.8,0,0,1,71.65,318Z" style="fill:#a0616a"/><path d="M55.54,224.68a4.41,4.41,0,0,1-.62-4.05l14.33-43a11.75,11.75,0,0,1,22.89,3.71v40.69a4.5,4.5,0,0,1-4.5,4.5H59.19A4.44,4.44,0,0,1,55.54,224.68Z" style="fill:#ccc"/><path d="M116.53,157.09a4.85,4.85,0,0,1-6.35-.32c-5.27-4.92-9.71-10.8-12-17.62-2.57-7.8-1.91-17,3-23.53,4.17-5.56,10.77-8.7,17.27-11.15a28.15,28.15,0,0,1,8-2.07,10.92,10.92,0,0,1,7.76,2.18A6.85,6.85,0,0,1,136.5,112a26,26,0,0,1,11.8-6.1,14.22,14.22,0,0,1,8.44.35c3.78,1.55,6.23,5.34,7.35,9.26a16.67,16.67,0,0,1,.22,9.21,11.15,11.15,0,0,1-5.7,7c-3.45,1.62-7.55,1-11.16-.23s-7-3.06-10.75-3.85-8-.33-10.68,2.42c-1.86,1.94-2.59,4.67-3.26,7.27l-3.46,13.53a17,17,0,0,1-2.15,5.58A3.82,3.82,0,0,1,116.53,157.09Z" style="fill:#2f2e41"/><path d="M216.14,352.38h-32.3a3.48,3.48,0,0,1-3.43-2.92,135.52,135.52,0,0,1,0-41.3,3.47,3.47,0,0,1,3.43-2.92h32.3a3.45,3.45,0,0,1,2.72,1.32,3.51,3.51,0,0,1,.65,3,82.93,82.93,0,0,0,0,38.5,3.48,3.48,0,0,1-3.37,4.32Z" style="fill:#2196f3"/><path d="M162,484H1a1,1,0,0,1,0-2H162a1,1,0,0,1,0,2Z" style="fill:#3f3d56"/></svg>